<?xml version="1.0" encoding="UTF-8" standalone="no"?>
<!-- Created with Inkscape (http://www.inkscape.org/) -->

<svg
   xmlns:dc="http://purl.org/dc/elements/1.1/"
   xmlns:cc="http://creativecommons.org/ns#"
   xmlns:rdf="http://www.w3.org/1999/02/22-rdf-syntax-ns#"
   xmlns:svg="http://www.w3.org/2000/svg"
   xmlns="http://www.w3.org/2000/svg"
   xmlns:sodipodi="http://sodipodi.sourceforge.net/DTD/sodipodi-0.dtd"
   xmlns:inkscape="http://www.inkscape.org/namespaces/inkscape"
   width="210mm"
   height="297mm"
   viewBox="0 0 210 297"
   version="1.1"
   id="svg126"
   inkscape:version="0.92.4 (5da689c313, 2019-01-14)"
   sodipodi:docname="drawing.svg">
  <defs
     id="defs120" />
  <sodipodi:namedview
     id="base"
     pagecolor="#ffffff"
     bordercolor="#666666"
     borderopacity="1.0"
     inkscape:pageopacity="0.0"
     inkscape:pageshadow="2"
     inkscape:zoom="0.7"
     inkscape:cx="372.78623"
     inkscape:cy="591.50721"
     inkscape:document-units="mm"
     inkscape:current-layer="layer1"
     showgrid="false"
     inkscape:window-width="1920"
     inkscape:window-height="1001"
     inkscape:window-x="-9"
     inkscape:window-y="-9"
     inkscape:window-maximized="1" />
  <metadata
     id="metadata123">
    <rdf:RDF>
      <cc:Work
         rdf:about="">
        <dc:format>image/svg+xml</dc:format>
        <dc:type
           rdf:resource="http://purl.org/dc/dcmitype/StillImage" />
        <dc:title></dc:title>
      </cc:Work>
    </rdf:RDF>
  </metadata>
  <g
     inkscape:label="Layer 1"
     inkscape:groupmode="layer"
     id="layer1">
    <path
       style="fill:#ff2a2a;stroke:#000000;stroke-width:0.26458332px;stroke-linecap:butt;stroke-linejoin:miter;stroke-opacity:1"
       d="M 66.523808,75.505952 C 127.75595,52.82738 177.92653,80.377979 147.80072,115.88388 117.67491,151.38978 80.130951,155.25893 51.40476,139.38393 22.678571,123.50893 26.836309,76.261904 55.184523,86.467261 83.532738,96.672618 66.523808,75.505952 66.523808,75.505952 Z"
       id="path150"
       inkscape:connector-curvature="0" />
    <g
       aria-label="p"
       style="font-style:normal;font-weight:normal;font-size:50.79999924px;line-height:1.25;font-family:sans-serif;letter-spacing:0px;word-spacing:0px;fill:#ffd42a;fill-opacity:1;stroke:none;stroke-width:0.26458332"
       id="text154"
       transform="matrix(3.0772174,0,0,1.4297924,-173.30384,-38.338765)">
      <path
         d="m 99.261525,105.24936 q 0,3.37343 -0.967383,6.17636 -0.967383,2.77813 -2.728516,4.71289 -1.637109,1.83555 -3.869531,2.85254 -2.207617,0.99219 -4.688086,0.99219 -2.158008,0 -3.91914,-0.47129 -1.736329,-0.47129 -3.547071,-1.46348 v 11.6086 H 74.878517 V 91.730802 h 4.663281 v 2.902148 q 1.860352,-1.562695 4.167188,-2.604492 2.33164,-1.066601 4.960937,-1.066601 5.010547,0 7.788672,3.795117 2.80293,3.770312 2.80293,10.492386 z m -4.81211,0.12402 q 0,-5.01055 -1.711523,-7.491016 -1.711524,-2.480468 -5.258594,-2.480468 -2.00918,0 -4.043164,0.868164 -2.033984,0.868164 -3.894336,2.282031 v 15.701369 q 1.984375,0.89297 3.398242,1.21543 1.438672,0.32246 3.249414,0.32246 3.894336,0 6.077149,-2.6293 2.182812,-2.6293 2.182812,-7.78867 z"
         style="fill:#ffd42a;stroke-width:0.26458332"
         id="path156"
         inkscape:connector-curvature="0" />
    </g>
  </g>
</svg>
